<?xml version="1.0" encoding="UTF-8"?>
<!DOCTYPE svg PUBLIC "-//W3C//DTD SVG 1.1//EN" "http://www.w3.org/Graphics/SVG/1.1/DTD/svg11.dtd">
<svg xmlns="http://www.w3.org/2000/svg" version="1.1" width="100px" height="100px" style="shape-rendering:geometricPrecision; text-rendering:geometricPrecision; image-rendering:optimizeQuality; fill-rule:evenodd; clip-rule:evenodd" xmlns:xlink="http://www.w3.org/1999/xlink">
<g><path style="opacity:1" fill="#e8e7e8" d="M 40.5,2.5 C 43.1667,2.5 45.8333,2.5 48.5,2.5C 48.5,3.5 48.5,4.5 48.5,5.5C 32.4091,6.12786 19.9091,13.1279 11,26.5C 7.72825,33.3217 5.06159,40.3217 3,47.5C 2.66114,30.7569 9.8278,17.9236 24.5,9C 29.7441,6.31502 35.0775,4.14836 40.5,2.5 Z"/></g>
<g><path style="opacity:1" fill="#e9e8e9" d="M 51.5,2.5 C 74.3899,3.52561 89.5566,14.8589 97,36.5C 98.0429,39.7568 98.5429,43.0901 98.5,46.5C 97.5,46.5 96.5,46.5 95.5,46.5C 91.809,21.1446 77.1423,7.47796 51.5,5.5C 51.5,4.5 51.5,3.5 51.5,2.5 Z"/></g>
<g><path style="opacity:1" fill="#dfdfe0" d="M 47.5,6.5 C 48.404,7.20895 48.7373,8.20895 48.5,9.5C 32.1303,10.7132 20.1303,18.5465 12.5,33C 11.5165,33.5908 10.8499,33.2575 10.5,32C 18.4103,17.0475 30.7437,8.54753 47.5,6.5 Z"/></g>
<g><path style="opacity:1" fill="#e5e4e5" d="M 51.5,6.5 C 74.2786,8.94907 88.2786,21.2824 93.5,43.5C 93.1667,44.5 92.8333,45.5 92.5,46.5C 87.9564,23.9524 74.2898,11.6191 51.5,9.5C 51.5,8.5 51.5,7.5 51.5,6.5 Z"/></g>
<g><path style="opacity:1" fill="#e5e3e4" d="M 51.5,11.5 C 72.2041,13.2018 84.8707,24.2018 89.5,44.5C 89.1667,45.1667 88.8333,45.8333 88.5,46.5C 84.2753,27.6086 72.6086,16.6086 53.5,13.5C 52.2867,13.2528 51.62,12.5862 51.5,11.5 Z"/></g>
<g><path style="opacity:1" fill="#deddde" d="M 44.5,15.5 C 45.9778,15.238 47.3112,15.5713 48.5,16.5C 48.2907,17.086 47.9574,17.586 47.5,18C 36.8354,18.9921 28.3354,23.8255 22,32.5C 22.1154,29.6572 23.282,27.1572 25.5,25C 31.1001,20.1999 37.4334,17.0333 44.5,15.5 Z"/></g>
<g><path style="opacity:1" fill="#e2e1e2" d="M 51.5,15.5 C 71.3124,17.8124 82.8124,28.8124 86,48.5C 90.1206,49.1388 94.2873,49.8055 98.5,50.5C 93.544,51.4941 88.544,51.8275 83.5,51.5C 82.4968,32.3279 72.4968,21.1612 53.5,18C 52.244,17.5831 51.5774,16.7498 51.5,15.5 Z"/></g>
<g><path style="opacity:1" fill="#dfdedf" d="M 42.5,11.5 C 44.604,11.2011 46.604,11.5344 48.5,12.5C 35.0052,14.4057 24.6719,21.0724 17.5,32.5C 16.635,33.5827 15.635,33.7494 14.5,33C 20.8134,21.8478 30.1468,14.6812 42.5,11.5 Z"/></g>
<g><path style="opacity:1" fill="#d7d7d7" d="M 44.5,19.5 C 45.9778,19.238 47.3112,19.5713 48.5,20.5C 38.9262,21.9466 31.2596,26.4466 25.5,34C 24.8333,34.6667 24.1667,34.6667 23.5,34C 28.7777,26.5373 35.7777,21.704 44.5,19.5 Z"/></g>
<g><path style="opacity:1" fill="#dedede" d="M 46.5,27.5 C 59.0073,27.0311 67.0073,32.6978 70.5,44.5C 70.1667,45.1667 69.8333,45.8333 69.5,46.5C 64.1556,31.3236 54.1556,26.8236 39.5,33C 35.0721,36.0925 32.2388,40.2591 31,45.5C 30.3076,44.9747 29.8076,44.3081 29.5,43.5C 32.65,35.3459 38.3167,30.0126 46.5,27.5 Z"/></g>
<g><path style="opacity:1" fill="#f6f6f6" d="M 63.5,47.5 C 62.7321,48.2625 62.2321,49.2625 62,50.5C 59.5065,49.6802 57.3398,49.6802 55.5,50.5C 56.0456,46.2458 54.2123,43.9125 50,43.5C 46.1179,44.2161 44.2846,46.5495 44.5,50.5C 44.5654,50.9382 44.3988,51.2716 44,51.5C 42.9148,50.7069 41.7481,50.0402 40.5,49.5C 39.3777,50.6302 38.0443,51.2969 36.5,51.5C 37.1775,37.3067 44.1775,32.4733 57.5,37C 61.45,39.4359 63.45,42.9359 63.5,47.5 Z"/></g>
<g><path style="opacity:1" fill="#dadada" d="M 23.5,52.5 C 23.6716,53.4916 23.3382,54.1583 22.5,54.5C 20.8715,40.9254 26.2049,31.0921 38.5,25C 41.8337,23.4851 45.167,22.9851 48.5,23.5C 32.575,26.7504 24.2416,36.4171 23.5,52.5 Z"/></g>
<g><path style="opacity:1" fill="#d8d7d8" d="M 51.5,22.5 C 71.8622,25.6774 80.3622,37.344 77,57.5C 72.7831,68.205 64.9498,74.5383 53.5,76.5C 52.8333,76.1667 52.1667,75.8333 51.5,75.5C 70.8072,71.3833 78.6405,59.7166 75,40.5C 73.1248,35.5733 69.9582,31.74 65.5,29C 60.6056,26.8178 55.9389,24.6512 51.5,22.5 Z"/></g>
<g><path style="opacity:1" fill="#ececec" d="M 63.5,47.5 C 62.4994,60.1772 55.8327,64.6772 43.5,61C 40.0721,58.6459 37.7387,55.4792 36.5,51.5C 38.0443,51.2969 39.3777,50.6302 40.5,49.5C 41.7481,50.0402 42.9148,50.7069 44,51.5C 44.3988,51.2716 44.5654,50.9382 44.5,50.5C 48.1667,55.8333 51.8333,55.8333 55.5,50.5C 57.3398,49.6802 59.5065,49.6802 62,50.5C 62.2321,49.2625 62.7321,48.2625 63.5,47.5 Z"/></g>
<g><path style="opacity:1" fill="#eeedee" d="M 48.5,47.5 C 51.5476,47.494 52.0476,48.494 50,50.5C 48.9614,49.7562 48.4614,48.7562 48.5,47.5 Z"/></g>
<g><path style="opacity:1" fill="#dcdbdb" d="M 8.5,35.5 C 9.58617,35.62 10.2528,36.2867 10.5,37.5C 9.01434,42.0523 8.34768,46.719 8.5,51.5C 6.07603,51.8076 3.74269,51.4742 1.5,50.5C 2.99051,49.7564 4.49051,49.0897 6,48.5C 6.41807,44.0669 7.2514,39.7335 8.5,35.5 Z"/></g>
<g><path style="opacity:1" fill="#d6d5d5" d="M 21.5,35.5 C 22.2891,35.7828 22.9558,36.2828 23.5,37C 18.0067,50.1975 20.5067,61.6975 31,71.5C 31.6877,72.3317 31.521,72.9984 30.5,73.5C 18.6982,62.958 15.6982,50.2913 21.5,35.5 Z"/></g>
<g><path style="opacity:1" fill="#d0d0d0" d="M 83.5,53.5 C 84.4972,53.4701 85.1639,53.9701 85.5,55C 83.948,60.937 81.448,66.437 78,71.5C 76.9505,72.5171 75.7839,72.6838 74.5,72C 78.9763,66.5475 81.9763,60.3808 83.5,53.5 Z"/></g>
<g><path style="opacity:1" fill="#d6d5d5" d="M 87.5,53.5 C 88.5862,53.62 89.2528,54.2867 89.5,55.5C 88.1164,63.6006 84.6164,70.6006 79,76.5C 78.5,76 78,75.5 77.5,75C 83.0411,68.8839 86.3745,61.7173 87.5,53.5 Z"/></g>
<g><path style="opacity:1" fill="#d6d5d5" d="M 17.5,35.5 C 18.3764,35.3691 19.0431,35.7025 19.5,36.5C 14.3681,50.6751 17.2014,63.0084 28,73.5C 28.116,75.6546 27.7827,77.6546 27,79.5C 33.6247,83.7647 40.7913,86.7647 48.5,88.5C 34.9367,88.7977 24.4367,83.1311 17,71.5C 9.96495,60.303 8.79828,48.6363 13.5,36.5C 13.8333,37 14.1667,37.5 14.5,38C 11.1695,50.014 13.0028,61.1807 20,71.5C 21.1133,73.3293 22.6133,74.1626 24.5,74C 14.5101,62.5509 12.1767,49.7176 17.5,35.5 Z"/></g>
<g><path style="opacity:1" fill="#cac8c9" d="M 23.5,52.5 C 26.9426,65.2691 35.2759,72.9357 48.5,75.5C 38.9503,75.6385 31.4503,71.6385 26,63.5C 24.3364,60.6729 23.1697,57.6729 22.5,54.5C 23.3382,54.1583 23.6716,53.4916 23.5,52.5 Z"/></g>
<g><path style="opacity:1" fill="#d3d2d3" d="M 29.5,52.5 C 30.4959,52.4142 31.3292,52.7476 32,53.5C 38.021,67.287 47.8544,70.787 61.5,64C 63,62.5 64.5,61 66,59.5C 66.6302,61.9034 65.7969,63.7367 63.5,65C 53.0799,71.5418 43.2465,70.7085 34,62.5C 31.682,59.531 30.182,56.1977 29.5,52.5 Z"/></g>
<g><path style="opacity:1" fill="#d2d1d2" d="M 6.5,53.5 C 7.37644,53.3691 8.04311,53.7025 8.5,54.5C 10.4181,63.1686 14.0847,71.002 19.5,78C 19,78.5 18.5,79 18,79.5C 11.1809,72.1917 7.34756,63.525 6.5,53.5 Z"/></g>
<g><path style="opacity:1" fill="#d5d4d4" d="M 51.5,19.5 C 69.6646,21.1653 79.6646,30.9986 81.5,49C 79.8622,67.471 69.8622,77.971 51.5,80.5C 51.5,79.5 51.5,78.5 51.5,77.5C 72.0072,74.8194 81.1739,63.1527 79,42.5C 77.368,36.0698 73.868,30.9031 68.5,27C 62.8148,23.9611 57.1481,21.4611 51.5,19.5 Z"/></g>
<g><path style="opacity:1" fill="#cfcece" d="M 34.5,73.5 C 39.1889,75.7203 43.8556,77.7203 48.5,79.5C 43.2189,80.9119 38.3855,79.9119 34,76.5C 33.5304,75.4232 33.6971,74.4232 34.5,73.5 Z"/></g>
<g><path style="opacity:1" fill="#cfcece" d="M 71.5,74.5 C 72.675,74.281 73.675,74.6143 74.5,75.5C 68.0417,81.8701 60.375,84.8701 51.5,84.5C 55.7044,82.8172 60.0377,81.3172 64.5,80C 67.2661,78.629 69.5994,76.7957 71.5,74.5 Z"/></g>
<g><path style="opacity:1" fill="#cdcccc" d="M 30.5,77.5 C 36.2359,80.632 42.2359,82.9653 48.5,84.5C 41.5977,85.0722 35.2643,83.2388 29.5,79C 30.056,78.6174 30.3893,78.1174 30.5,77.5 Z"/></g>
<g><path style="opacity:1" fill="#d4d3d3" d="M 74.5,77.5 C 75.552,77.3505 76.552,77.5172 77.5,78C 70.3673,85.539 61.7006,89.039 51.5,88.5C 56.1168,86.9399 60.7834,85.4399 65.5,84C 68.9614,82.3572 71.9614,80.1905 74.5,77.5 Z"/></g>
<g><path style="opacity:1" fill="#cfcece" d="M 20.5,80.5 C 28.822,86.6559 38.1553,90.6559 48.5,92.5C 39.2595,93.3673 30.9262,90.8673 23.5,85C 21.8588,83.871 20.8588,82.371 20.5,80.5 Z"/></g>
<g><path style="opacity:1" fill="#cecece" d="M 91.5,53.5 C 92.6935,53.9704 93.3601,54.9704 93.5,56.5C 89.3277,77.8388 76.4944,90.1722 55,93.5C 53.8333,93.1667 52.6667,92.8333 51.5,92.5C 74.1092,88.8896 87.4425,75.8896 91.5,53.5 Z"/></g>
<g><path style="opacity:1" fill="#d0d0d0" d="M 95.5,53.5 C 96.5,53.5 97.5,53.5 98.5,53.5C 94.9017,81.0982 79.2351,96.0982 51.5,98.5C 51.5,97.5 51.5,96.5 51.5,95.5C 73.0851,94.0843 87.2517,83.0843 94,62.5C 94.9533,59.5682 95.4533,56.5682 95.5,53.5 Z"/></g>
<g><path style="opacity:1" fill="#d2d2d1" d="M 1.5,53.5 C 2.5,53.5 3.5,53.5 4.5,53.5C 8.47348,78.8087 23.1401,92.8087 48.5,95.5C 48.5,96.5 48.5,97.5 48.5,98.5C 21.4314,95.4318 5.76472,80.4318 1.5,53.5 Z"/></g>
</svg>
